<?xml version="1.0" encoding="UTF-8"?> <!-- Generator: Adobe Illustrator 23.0.0, SVG Export Plug-In . SVG Version: 6.00 Build 0) --> <svg xmlns="http://www.w3.org/2000/svg" xmlns:xlink="http://www.w3.org/1999/xlink" id="Layer_1" x="0px" y="0px" viewBox="0 0 512 512" style="enable-background:new 0 0 512 512;" xml:space="preserve"> <style type="text/css"> .st0{fill:#FFFFFF;} </style> <title>instagram</title> <path class="st0" d="M305,256c0,27.1-21.9,49-49,49s-49-21.9-49-49s21.9-49,49-49l0,0C283.1,207,305,228.9,305,256z"></path> <path class="st0" d="M370.6,169.3c-4.9-12.8-15.1-23-27.9-27.9c-5.2-2-13-4.4-27.3-5.1c-15.5-0.7-20.1-0.9-59.4-0.9 s-43.9,0.1-59.4,0.9c-14.3,0.7-22.1,3-27.3,5.1c-12.8,4.9-23,15.1-27.9,27.9c-2,5.2-4.4,13-5.1,27.3c-0.7,15.5-0.9,20.1-0.9,59.4 s0.2,43.9,0.9,59.4c0.7,14.3,3,22.1,5.1,27.3c5,12.8,15.1,22.9,27.9,27.9c5.2,2,13,4.4,27.3,5.1c15.5,0.7,20.1,0.9,59.4,0.9 s43.9-0.1,59.4-0.9c14.3-0.6,22.1-3,27.3-5.1c12.8-4.9,22.9-15.1,27.9-27.9c2-5.2,4.4-13,5.1-27.3c0.7-15.5,0.9-20.2,0.9-59.4 s-0.1-43.9-0.9-59.4C375,182.3,372.6,174.5,370.6,169.3z M256,331.5c-41.7,0-75.5-33.8-75.5-75.5s33.8-75.5,75.5-75.5 s75.5,33.8,75.5,75.5S297.7,331.5,256,331.5L256,331.5z M334.5,195.2c-9.7,0-17.6-7.9-17.6-17.6s7.9-17.6,17.6-17.6 s17.6,7.9,17.6,17.6v0C352.1,187.3,344.2,195.2,334.5,195.2L334.5,195.2z"></path> <path class="st0" d="M256,0C114.6,0,0,114.6,0,256s114.6,256,256,256s256-114.6,256-256S397.4,0,256,0z M402.1,316.6 c-0.7,15.6-3.2,26.3-6.8,35.7c-7.6,19.8-23.2,35.4-43,43c-9.4,3.6-20,6.1-35.7,6.8S295.9,403,256,403s-44.9-0.2-60.6-0.9 s-26.3-3.2-35.7-6.8c-19.7-7.6-35.4-23.3-43-43c-3.6-9.4-6.1-20-6.8-35.7S109,295.9,109,256s0.2-44.9,0.9-60.6s3.2-26.3,6.8-35.7 c7.7-19.7,23.3-35.3,43-43c9.4-3.6,20-6.1,35.7-6.8s20.7-0.9,60.6-0.9s44.9,0.2,60.6,0.9s26.3,3.2,35.7,6.8 c19.7,7.6,35.4,23.3,43,43c3.6,9.4,6.1,20,6.8,35.7s0.9,20.7,0.9,60.6S402.8,300.9,402.1,316.6z"></path> </svg> 